<svg width="40" height="40" viewBox="0 0 40 40" fill="none" xmlns="http://www.w3.org/2000/svg">
<path d="M20.2287 3.79907C16.97 3.79907 13.7846 4.74541 11.0751 6.51841C8.36565 8.29141 6.25388 10.8114 5.00685 13.7598C3.75982 16.7082 3.43354 19.9526 4.06927 23.0826C4.705 26.2126 6.27419 29.0877 8.5784 31.3443C10.8826 33.6009 13.8184 35.1376 17.0144 35.7602C20.2104 36.3828 23.5232 36.0633 26.5338 34.842C29.5444 33.6207 32.1176 31.5526 33.928 28.8991C35.7384 26.2456 36.7047 23.126 36.7047 19.9347C36.7047 17.8157 36.2785 15.7175 35.4505 13.7598C34.6225 11.8022 33.4089 10.0234 31.879 8.52508C30.349 7.02675 28.5327 5.83821 26.5338 5.02732C24.5348 4.21643 22.3924 3.79907 20.2287 3.79907ZM27.3134 16.0783L19.7838 25.7596C19.6304 25.9549 19.4332 26.1131 19.2076 26.2222C18.982 26.3313 18.7339 26.3883 18.4822 26.3889C18.232 26.3902 17.9847 26.3357 17.7592 26.2295C17.5336 26.1232 17.3358 25.9681 17.1806 25.7758L13.1605 20.7576C13.0274 20.5902 12.9293 20.3988 12.8718 20.1942C12.8143 19.9897 12.7985 19.7761 12.8252 19.5656C12.852 19.3551 12.9209 19.1518 13.0278 18.9673C13.1348 18.7829 13.2779 18.6208 13.4488 18.4905C13.794 18.2273 14.2318 18.1092 14.666 18.1622C14.8809 18.1884 15.0885 18.2558 15.2769 18.3606C15.4652 18.4654 15.6306 18.6055 15.7637 18.7729L18.4493 22.1291L24.6772 14.0613C24.8092 13.8918 24.974 13.7494 25.1622 13.6422C25.3503 13.5351 25.5582 13.4653 25.7739 13.4368C25.9897 13.4084 26.209 13.4218 26.4194 13.4763C26.6298 13.5309 26.8272 13.6255 27.0003 13.7547C27.1734 13.884 27.3188 14.0454 27.4282 14.2297C27.5376 14.4139 27.6089 14.6175 27.638 14.8288C27.6671 15.0401 27.6533 15.2549 27.5977 15.4609C27.542 15.667 27.4454 15.8603 27.3134 16.0299V16.0783Z" fill="#E7D50C"/>
</svg>
